<svg width="22" height="16" viewBox="0 0 22 16" fill="none" xmlns="http://www.w3.org/2000/svg">
<path d="M5.75 4.75L10.75 8.25L15.75 4.75" stroke="black" stroke-width="1.5" stroke-linecap="round" stroke-linejoin="round"/>
<path d="M0.75 12.75V2.75C0.75 2.21957 0.960714 1.71086 1.33579 1.33579C1.71086 0.960714 2.21957 0.75 2.75 0.75H18.75C19.2804 0.75 19.7891 0.960714 20.1642 1.33579C20.5393 1.71086 20.75 2.21957 20.75 2.75V12.75C20.75 13.2804 20.5393 13.7891 20.1642 14.1642C19.7891 14.5393 19.2804 14.75 18.75 14.75H2.75C2.21957 14.75 1.71086 14.5393 1.33579 14.1642C0.960714 13.7891 0.75 13.2804 0.75 12.75Z" stroke="black" stroke-width="1.5"/>
</svg>
